<svg id="Layer_1" data-name="Layer 1" xmlns="http://www.w3.org/2000/svg" viewBox="0 0 200 200"><defs><style>.cls-1{fill:#2f3133;}.cls-2{fill:#d5d8dc;}.cls-3{fill:#434f6a;}.cls-4{fill:#97d3f3;}.cls-5{opacity:0.4;}.cls-6{fill:#fed577;}.cls-7{fill:#fff;}.cls-8{fill:#6f747b;}.cls-9{fill:#a6785c;}.cls-10{fill:#9d745e;}.cls-11{fill:#f5f1e6;}.cls-12{fill:#c4e185;}.cls-13{fill:#78c8a8;}.cls-14{fill:#f47f70;}.cls-15{fill:#ee6459;}</style></defs><title>1xArtboard 2</title><rect class="cls-1" width="200.17" height="200.17"/><circle class="cls-2" cx="166.53" cy="120.83" r="11.37"/><path class="cls-3" d="M166.53,133.71a12.88,12.88,0,1,1,12.88-12.87A12.89,12.89,0,0,1,166.53,133.71Zm0-22.75a9.87,9.87,0,1,0,9.88,9.88A9.89,9.89,0,0,0,166.53,111Z"/><circle class="cls-4" cx="166.53" cy="120.83" r="6.59"/><path class="cls-3" d="M166.53,128.42a7.59,7.59,0,1,1,7.59-7.59A7.6,7.6,0,0,1,166.53,128.42Zm0-13.18a5.59,5.59,0,1,0,5.59,5.59A5.6,5.6,0,0,0,166.53,115.24Z"/><path class="cls-2" d="M35.18,153.5S65.35,173.83,103,173.83c36.46,0,62.17-20.33,62.17-20.33V140.17s-29.58,22-62.17,22c-29.47,0-67.83-21.33-67.83-21.33Z"/><g class="cls-5"><path class="cls-3" d="M34.79,147S65,167.33,102.63,167.33c34.57,0,62.17-20.33,62.17-20.33v-6.33s-29.58,22-62.17,22c-29.47,0-67.83-21.33-67.83-21.33Z"/></g><path class="cls-2" d="M12.68,200s-.18-20.54,2.33-24.67,20-20,20-20,32.67,19,65.83,19S165,154,165,154s20,17.72,20,21.33S187.32,200,187.32,200Z"/><polygon class="cls-6" points="172.02 200.17 167.1 200.17 167.1 157.5 170.02 157.5 172.02 161 172.02 200.17"/><rect class="cls-7" x="52.02" y="182" width="95.79" height="18"/><polygon class="cls-6" points="28.1 200.17 33.02 200.17 33.02 157.5 30.1 157.5 28.1 161 28.1 200.17"/><path class="cls-2" d="M157.35,67.67H175a2,2,0,0,1,2,2V107.5a2,2,0,0,1-2,2h-9.67"/><path class="cls-3" d="M175,111h-9.67a1.5,1.5,0,1,1,0-3H175a.5.5,0,0,0,.5-.5V69.67a.5.5,0,0,0-.5-.5H157.35a1.5,1.5,0,0,1,0-3H175a3.5,3.5,0,0,1,3.5,3.5V107.5A3.5,3.5,0,0,1,175,111Z"/><circle class="cls-4" cx="168.22" cy="81.14" r="4.24"/><path class="cls-3" d="M168.22,86.37a5.24,5.24,0,1,1,5.24-5.24A5.24,5.24,0,0,1,168.22,86.37Zm0-8.47a3.24,3.24,0,1,0,3.24,3.24A3.24,3.24,0,0,0,168.22,77.9Z"/><circle class="cls-4" cx="168.22" cy="93.14" r="4.24"/><path class="cls-3" d="M168.22,98.37a5.24,5.24,0,1,1,5.24-5.24A5.24,5.24,0,0,1,168.22,98.37Zm0-8.47a3.24,3.24,0,1,0,3.24,3.24A3.24,3.24,0,0,0,168.22,89.9Z"/><g class="cls-5"><polygon class="cls-3" points="168.94 131.67 165.1 131.67 159.1 67.54 161.52 67.57 168.56 81.5 168.94 131.67"/></g><path class="cls-2" d="M33.35,133.67h-7.5a2,2,0,0,1-2-2V87.33a2,2,0,0,1,2-2h6.5"/><path class="cls-3" d="M33.35,135.17h-7.5a3.5,3.5,0,0,1-3.5-3.5V87.33a3.5,3.5,0,0,1,3.5-3.5h6.5a1.5,1.5,0,0,1,0,3h-6.5a.5.5,0,0,0-.5.5v44.33a.5.5,0,0,0,.5.5h7.5a1.5,1.5,0,0,1,0,3Z"/><path class="cls-2" d="M32.37,82.1,35,141.33s35.37,21.33,64.83,21.33c36.39,0,65.17-22,65.17-22V82a2,2,0,0,0-.19-.86C162.67,76.68,142.34,37,97.68,37,56,37,35,76.36,32.58,81.12A2,2,0,0,0,32.37,82.1Z"/><path class="cls-3" d="M99.85,164.17c-29.54,0-64.15-20.67-65.61-21.55l-.69-.42-2.68-60a3.49,3.49,0,0,1,.37-1.72c2.31-4.6,23.83-44.94,66.44-44.94,45.55,0,66.28,40.41,68.49,45a3.45,3.45,0,0,1,.34,1.51v59.38l-.59.45C165.64,142.08,136.33,164.17,99.85,164.17ZM36.48,140.45c5.05,2.92,36.9,20.71,63.37,20.71,32.63,0,59.4-18.21,63.67-21.26V82a.46.46,0,0,0,0-.21C161.34,77.39,141.4,38.5,97.68,38.5c-40.81,0-61.53,38.86-63.76,43.29a.48.48,0,0,0,0,.24Z"/><path class="cls-8" d="M153,129.33s-26.83,24.33-53.67,24.33c-28,0-53.67-24.33-53.67-24.33v-40s22.33-24,53.67-24c34.5,0,53.67,24,53.67,24v40Z"/><path class="cls-9" d="M142.29,137.6s-12.52,7.05-16.7,8.94c-3.91,1.78-15.66,5.73-15.66,5.73l1.14-82,29.7,7s3.66,22.06,3.66,38.44C144.43,121.36,142.29,137.6,142.29,137.6Z"/><path class="cls-3" d="M143.26,137.83l-1.94-.47c0-.13,3.12-13.09,3.12-21.65,0-16.08-4.59-37-4.63-37.22l2-.43c0,.21,4.68,21.36,4.68,37.65C146.43,124.52,143.39,137.29,143.26,137.83Z"/><path class="cls-9" d="M57.58,137.6s12.52,7.05,16.7,8.94c3.91,1.78,15.66,5.73,15.66,5.73l-1.14-82-29.7,7s-3.66,22.06-3.66,38.44C55.43,121.36,57.58,137.6,57.58,137.6Z"/><path class="cls-3" d="M56.61,137.83c-.13-.54-3.17-13.31-3.17-22.11,0-16.3,4.64-37.44,4.68-37.65l2,.43c0,.21-4.64,21.15-4.64,37.22,0,8.56,3.09,21.52,3.12,21.65Z"/><path class="cls-10" d="M63.87,122a.5.5,0,0,1-.5-.46A202.37,202.37,0,0,1,64,85.27a.49.49,0,0,1,.56-.44.5.5,0,0,1,.44.56,201.35,201.35,0,0,0-.66,36,.5.5,0,0,1-.46.54Z"/><path class="cls-10" d="M64.6,128.53a.5.5,0,0,1-.49-.43q-.16-1.19-.31-2.38a.5.5,0,1,1,1-.12q.14,1.18.3,2.36a.5.5,0,0,1-.43.56Z"/><path class="cls-10" d="M66.44,138.1a.5.5,0,0,1-.48-.38c-.48-1.88-.91-3.9-1.28-6a.5.5,0,1,1,1-.17c.37,2.08.79,4.07,1.27,5.93a.5.5,0,0,1-.36.61Z"/><path class="cls-10" d="M72.19,141.1a.5.5,0,0,1-.48-.38c-5.58-21.84-2-52.15-1.92-52.45a.49.49,0,0,1,.56-.44.5.5,0,0,1,.44.56c0,.3-3.64,30.43,1.9,52.08a.5.5,0,0,1-.36.61Z"/><path class="cls-10" d="M76.29,135.85a.5.5,0,0,1-.49-.42q-.09-.61-.18-1.22c-2.82-20.13-.11-42.7-.08-42.93a.49.49,0,0,1,.56-.44.5.5,0,0,1,.44.56c0,.22-2.72,22.67.08,42.67q.09.61.18,1.21a.5.5,0,0,1-.42.57Z"/><path class="cls-10" d="M77.94,144.1a.5.5,0,0,1-.48-.38c-.33-1.29-.64-2.66-.92-4.06q-.14-.71-.27-1.44a.5.5,0,0,1,1-.18q.13.71.27,1.42c.28,1.39.58,2.73.91,4a.5.5,0,0,1-.36.61Z"/><path class="cls-10" d="M83.44,147.1a.5.5,0,0,1-.48-.38C77.37,124.88,81,94.58,81,94.27a.49.49,0,0,1,.56-.44.5.5,0,0,1,.44.56c0,.3-3.64,30.43,1.9,52.08a.5.5,0,0,1-.36.61Z"/><path class="cls-10" d="M61.82,140.46a.5.5,0,0,1-.48-.37c-3.33-12.63-3.49-26.93-3-36.7a.5.5,0,1,1,1,0c-.44,9.7-.28,23.89,3,36.4a.5.5,0,0,1-.36.61Z"/><path class="cls-10" d="M59.09,98.8h0a.5.5,0,0,1-.46-.54c.57-7.72,1.44-13,1.45-13a.5.5,0,0,1,1,.17c0,.05-.87,5.25-1.44,12.92A.5.5,0,0,1,59.09,98.8Z"/><path class="cls-10" d="M136.17,122h0a.5.5,0,0,1-.46-.54,201.25,201.25,0,0,0-.66-36,.5.5,0,0,1,.44-.56.49.49,0,0,1,.56.44,202.34,202.34,0,0,1,.66,36.22A.5.5,0,0,1,136.17,122Z"/><path class="cls-10" d="M133.6,138.1l-.12,0a.5.5,0,0,1-.36-.61c.48-1.86.9-3.85,1.27-5.93L135,128c.11-.78.21-1.56.3-2.35a.5.5,0,1,1,1,.12q-.14,1.19-.31,2.38l-.57,3.61c-.37,2.11-.8,4.13-1.29,6A.5.5,0,0,1,133.6,138.1Z"/><path class="cls-10" d="M127.85,141.1l-.12,0a.5.5,0,0,1-.36-.61,89.87,89.87,0,0,0,2-11c2.46-19.58-.1-40.9-.13-41.11a.5.5,0,0,1,.44-.56.49.49,0,0,1,.56.44c0,.21,2.6,21.65.13,41.36a90.78,90.78,0,0,1-2,11.09A.5.5,0,0,1,127.85,141.1Z"/><path class="cls-10" d="M122.1,144.1l-.12,0a.5.5,0,0,1-.36-.61c.44-1.7.83-3.53,1.18-5.43q.12-.66.23-1.32l.14-.86q.14-.9.27-1.81.19-1.38.35-2.76c2.21-19.23-.25-39.7-.27-39.9a.5.5,0,0,1,.44-.56.49.49,0,0,1,.56.44c0,.21,2.5,20.78.27,40.14q-.16,1.4-.35,2.79-.13.92-.27,1.83l-.14.87q-.11.67-.23,1.33c-.35,1.92-.75,3.77-1.19,5.49A.5.5,0,0,1,122.1,144.1Z"/><path class="cls-10" d="M118.26,138.81h-.08a.5.5,0,0,1-.42-.57c3.08-20.29.28-43.6.25-43.84a.5.5,0,0,1,.44-.56.49.49,0,0,1,.56.44c0,.23,2.84,23.68-.25,44.11A.5.5,0,0,1,118.26,138.81Z"/><path class="cls-10" d="M116.6,147.1l-.12,0a.5.5,0,0,1-.36-.61q.38-1.47.7-3a.5.5,0,0,1,1,.21q-.33,1.53-.71,3A.5.5,0,0,1,116.6,147.1Z"/><path class="cls-10" d="M138.23,140.46l-.13,0a.5.5,0,0,1-.36-.61c3.29-12.51,3.46-26.7,3-36.4l-.3-5.1c-.56-7.66-1.43-12.86-1.43-12.91a.5.5,0,1,1,1-.17c0,.05.88,5.29,1.45,13l.3,5.12c.45,9.78.28,24.08-3,36.71A.5.5,0,0,1,138.23,140.46Z"/><path class="cls-11" d="M137.22,101.88c-.43,8.23-1.73,18.87-7.56,23.93-3.76,3.26-12.06,7.79-15.7,9.93-2.3,1.36-1.87,8.82-.28,12.54,2.11,4.93-4.82,4-14.33,5.39l-14.88-2.12c9.36-12.38-1.06-18.31-3.64-19.48-3.79-1.72-8.15-3.68-11.62-6.27-5.93-4.43-4.54-20.17-6.07-27.92-4.46-22.63,16.66-34,37-32.21C141.19,69.29,138.31,81.17,137.22,101.88Z"/><path class="cls-9" d="M100.77,65.67s1.11,27,38.19,27L139.59,77S115.82,65.67,100.77,65.67Z"/><path class="cls-3" d="M136.81,93.71c-30.87,0-38.36-27.84-38.43-28.13l1.94-.5c.07.28,7.53,27.85,38.6,26.58l.08,2Q137.89,93.71,136.81,93.71Z"/><path class="cls-9" d="M99.18,65.67s-1.11,27-38.19,27L60.35,77S84.13,65.67,99.18,65.67Z"/><path class="cls-10" d="M60.91,81.69a.5.5,0,0,1-.1-1C71,78.64,79.16,72,84.17,66.82a.5.5,0,1,1,.72.69C79.78,72.81,71.49,79.57,61,81.68Z"/><path class="cls-3" d="M63.13,93.71c-.72,0-1.45,0-2.19,0l.08-2c13,.54,23.47-3.75,31-12.74a39.43,39.43,0,0,0,7.55-13.83l1.94.5C101.49,65.87,94,93.71,63.13,93.71Z"/><path class="cls-10" d="M139.59,81.69h-.1c-10.4-2.09-18.65-8.77-23.74-14a.5.5,0,1,1,.72-.7c5,5.13,13.06,11.68,23.22,13.72a.5.5,0,0,1-.1,1Z"/><path class="cls-10" d="M138.36,85.83h-.09c-7.57-1.34-14.92-5.22-21.83-11.54a.5.5,0,1,1,.67-.74c6.77,6.19,13.94,10,21.33,11.29a.5.5,0,0,1-.09,1Z"/><path class="cls-10" d="M113.49,71.17a.5.5,0,0,1-.36-.16,66.09,66.09,0,0,1-4.41-5.17.5.5,0,1,1,.79-.61,65.16,65.16,0,0,0,4.34,5.1.5.5,0,0,1-.36.84Z"/><path class="cls-10" d="M62.81,90a.5.5,0,0,1-.07-1,34,34,0,0,0,4.09-.82.5.5,0,1,1,.26,1,35.06,35.06,0,0,1-4.21.84Z"/><path class="cls-10" d="M71.19,87.81a.5.5,0,0,1-.19-1c.83-.33,1.66-.7,2.48-1.09a.5.5,0,1,1,.43.9c-.84.4-1.7.78-2.54,1.12A.5.5,0,0,1,71.19,87.81Z"/><path class="cls-10" d="M76.29,85.34a.5.5,0,0,1-.25-.94A57.5,57.5,0,0,0,90.9,71.81,53.82,53.82,0,0,0,95.26,66a.5.5,0,0,1,.85.53,53.66,53.66,0,0,1-4.44,5.91A58.54,58.54,0,0,1,76.54,85.28.5.5,0,0,1,76.29,85.34Z"/><path class="cls-10" d="M137.69,90h-.07a35.06,35.06,0,0,1-4.61-1,.5.5,0,0,1,.27-1,33.93,33.93,0,0,0,4.47.92.5.5,0,0,1-.07,1Z"/><path class="cls-10" d="M60.81,86a.5.5,0,0,1-.07-1,34.31,34.31,0,0,0,5.55-1.24C77.86,80.2,86.37,71.09,90.41,66a.5.5,0,1,1,.78.62c-4.11,5.2-12.77,14.47-24.6,18.16A35.38,35.38,0,0,1,60.88,86Z"/><path class="cls-10" d="M129,87.69a.5.5,0,0,1-.19,0c-15.06-6.15-24.36-21-24.45-21.1a.5.5,0,0,1,.85-.53c.09.15,9.22,14.68,24,20.7a.5.5,0,0,1-.19,1Z"/><path class="cls-3" d="M85.26,150.57l-1.58-1.23c1.11-1.42,4-5.68,4-8.27s-1.76-5-5.08-7.35a37.17,37.17,0,0,0-6.45-3.36c-3.85-1.7-7.48-3.31-9.19-6.49-5.48-10.23-7.21-45.43-7.28-46.92l2-.09c0,.36,1.78,36.24,7,46.08,1.38,2.57,4.71,4,8.23,5.6a38.63,38.63,0,0,1,6.8,3.56c3.87,2.75,5.92,5.86,5.92,9C89.68,144.87,85.44,150.34,85.26,150.57Z"/><path class="cls-3" d="M115.11,150.57c-.18-.23-4.42-5.7-4.42-9.5,0-3.13,2-6.23,5.92-9a38.63,38.63,0,0,1,6.8-3.56c3.53-1.56,6.86-3,8.23-5.6,5.27-9.84,7-45.71,7-46.08l2,.09c-.07,1.49-1.8,36.69-7.28,46.92-1.7,3.18-5.34,4.78-9.19,6.49a37.17,37.17,0,0,0-6.45,3.36c-3.32,2.36-5.08,4.9-5.08,7.35s2.89,6.85,4,8.27Z"/><circle class="cls-3" cx="117.5" cy="101" r="3.51"/><circle class="cls-3" cx="82.5" cy="101" r="3.51"/><path class="cls-3" d="M12.69,200.5h-.06a1.5,1.5,0,0,1-1.44-1.55c0-.74.69-18.25,2.39-24,1.63-5.55,16.51-18.64,19.94-21.6v-12a1.5,1.5,0,0,1,3,0v13.36l-.53.45c-7.23,6.18-18.41,16.77-19.54,20.62-1.6,5.42-2.27,23.12-2.27,23.3A1.5,1.5,0,0,1,12.69,200.5Z"/><path class="cls-3" d="M187.32,200.5a1.5,1.5,0,0,1-1.5-1.44c0-.18-.68-17.88-2.27-23.3-1.13-3.84-12.3-14.44-19.54-20.62l-.53-.45V141.33a1.5,1.5,0,0,1,3,0v12c3.43,3,18.31,16,19.94,21.6,1.7,5.78,2.37,23.29,2.39,24a1.5,1.5,0,0,1-1.44,1.55Z"/><path class="cls-3" d="M99.85,175.83c-37.73,0-65.46-20.43-65.73-20.63a1.5,1.5,0,0,1,1.8-2.4c.27.2,27.24,20,63.93,20,35.53,0,64-19.86,64.3-20.06a1.5,1.5,0,0,1,1.73,2.45C165.59,155.43,136.36,175.83,99.85,175.83Z"/><path class="cls-3" d="M28.1,200a1,1,0,0,1-1-1V160.5a1,1,0,0,1,2,0V199A1,1,0,0,1,28.1,200Z"/><path class="cls-3" d="M34,200a1,1,0,0,1-1-1V156a1,1,0,0,1,2,0v43A1,1,0,0,1,34,200Z"/><path class="cls-3" d="M166.1,200a1,1,0,0,1-1-1V156.5a1,1,0,0,1,2,0V199A1,1,0,0,1,166.1,200Z"/><path class="cls-3" d="M172,200a1,1,0,0,1-1-1V161a1,1,0,0,1,2,0v38A1,1,0,0,1,172,200Z"/><path class="cls-3" d="M148.35,200.83a1.5,1.5,0,0,1-1.5-1.5V183.5H53.52v15.83a1.5,1.5,0,0,1-3,0V180.5h99.33v18.83A1.5,1.5,0,0,1,148.35,200.83Z"/><circle class="cls-12" cx="116.92" cy="193.57" r="4.24"/><path class="cls-3" d="M116.92,198.81a5.24,5.24,0,1,1,5.24-5.24A5.24,5.24,0,0,1,116.92,198.81Zm0-8.47a3.24,3.24,0,1,0,3.24,3.24A3.24,3.24,0,0,0,116.92,190.33Z"/><circle class="cls-13" cx="132.92" cy="193.57" r="4.24"/><path class="cls-3" d="M132.92,198.81a5.24,5.24,0,1,1,5.24-5.24A5.24,5.24,0,0,1,132.92,198.81Zm0-8.47a3.24,3.24,0,1,0,3.24,3.24A3.24,3.24,0,0,0,132.92,190.33Z"/><rect class="cls-4" x="61.84" y="191.07" width="40.08" height="5"/><rect class="cls-7" x="64.84" y="191.07" width="2" height="5"/><rect class="cls-7" x="68.84" y="191.07" width="2" height="5"/><rect class="cls-7" x="72.84" y="191.07" width="2" height="5"/><rect class="cls-7" x="76.84" y="191.07" width="2" height="5"/><rect class="cls-7" x="80.84" y="191.07" width="2" height="5"/><rect class="cls-7" x="84.84" y="191.07" width="2" height="5"/><rect class="cls-7" x="88.84" y="191.07" width="2" height="5"/><rect class="cls-7" x="92.84" y="191.07" width="2" height="5"/><rect class="cls-7" x="96.84" y="191.07" width="2" height="5"/><path class="cls-3" d="M102.93,197.07H60.84v-7h42.08Zm-40.08-2h38.08v-3H62.84Z"/><path class="cls-3" d="M99.35,154.17c-28.25,0-53.61-22.75-54.68-23.72l-.49-.45V88.74l.4-.43c.93-1,23.14-24.48,54.76-24.48,34.82,0,54.64,24.32,54.84,24.56l.33.41V130l-.44.44C153.11,131.36,130,154.17,99.35,154.17ZM47.18,128.65c3.66,3.15,27.17,22.51,52.17,22.51,27.14,0,48.84-19.35,52.17-22.47V89.88c-2.65-3.06-21.23-23-52.17-23-28.08,0-49,20-52.17,23.11Z"/><g class="cls-5"><path class="cls-3" d="M46.53,94l-2.2,0-.2-4c.95-1,23.59-25,55.86-25,35.54,0,53.19,24.1,54,25.13l-.15,3.71-2.54-.47C151.14,93.12,132.56,71,100,71,70.4,71,46.74,93.79,46.53,94Z"/></g><rect class="cls-14" x="70.65" y="109.5" width="13.83" height="8.33" rx="4.17" ry="4.17"/><rect class="cls-14" x="114.95" y="109.5" width="13.83" height="8.33" rx="4.17" ry="4.17"/><path class="cls-3" d="M92.6,119.46h14.87S104.63,126,100,126,92.6,119.46,92.6,119.46Z"/><path class="cls-15" d="M95.75,124.07a7.67,7.67,0,0,1,4.29-1.32,7.48,7.48,0,0,1,4.25,1.32,6.15,6.15,0,0,1-4.25,2A6.28,6.28,0,0,1,95.75,124.07Z"/><g class="cls-5"><polygon class="cls-3" points="33.94 133.67 29.1 133.67 29.1 85.54 31.93 85.54 33.94 133.67"/></g><path class="cls-3" d="M102.93,197.07H60.84v-7h42.08Zm-40.08-2h38.08v-3H62.84Z"/></svg>